<svg width="18" height="18" viewBox="0 0 18 18" fill="none" xmlns="http://www.w3.org/2000/svg">
<path fill-rule="evenodd" clip-rule="evenodd" d="M9.69231 16.425C10.1653 16.174 10.7003 15.6498 11.2076 14.7075C11.3142 14.5097 11.4158 14.2991 11.5117 14.0769H9.69231V16.425ZM8.30769 16.425C7.83471 16.174 7.29972 15.6498 6.79237 14.7075C6.68582 14.5097 6.58422 14.2991 6.48828 14.0769H8.30769V16.425ZM9.69231 12.6923H11.9913C12.2359 11.7941 12.3976 10.7811 12.4462 9.69231H9.69231V12.6923ZM8.30769 9.69231V12.6923H6.00872C5.76408 11.7941 5.60243 10.7811 5.55383 9.69231H8.30769ZM9.69231 8.30769H12.4462C12.3976 7.21892 12.2359 6.20594 11.9913 5.30769H9.69231V8.30769ZM8.30769 5.30769V8.30769H5.55383C5.60243 7.21892 5.76408 6.20594 6.00872 5.30769H8.30769ZM9.69231 3.92308H11.5117C11.4158 3.70087 11.3142 3.49034 11.2076 3.29248C10.7003 2.35025 10.1653 1.826 9.69231 1.575V3.92308ZM8.30769 1.575V3.92308H6.48828C6.58422 3.70087 6.68582 3.49034 6.79237 3.29248C7.29974 2.35025 7.83471 1.826 8.30769 1.575ZM13.002 14.0769C12.7393 14.7898 12.4228 15.429 12.0634 15.9742C13.0661 15.5331 13.9556 14.8821 14.6763 14.0769H13.002ZM15.662 12.6923H13.4209C13.6457 11.7651 13.7885 10.7545 13.832 9.69231H16.5843C16.4869 10.7733 16.1636 11.7891 15.662 12.6923ZM4.57913 12.6923H2.33802C1.83638 11.7891 1.51307 10.7733 1.41566 9.69231H4.16797C4.21147 10.7545 4.35427 11.7651 4.57913 12.6923ZM3.32372 14.0769H4.99795C5.26066 14.7898 5.57718 15.429 5.93663 15.9742C4.93394 15.5331 4.04442 14.8821 3.32372 14.0769ZM12.0634 2.02583C12.4228 2.57102 12.7393 3.21016 13.002 3.92308H14.6763C13.9556 3.11785 13.0661 2.4669 12.0634 2.02583ZM15.662 5.30769H13.4209C13.6457 6.23488 13.7885 7.24551 13.832 8.30769H16.5843C16.4869 7.2267 16.1636 6.21085 15.662 5.30769ZM5.93663 2.02583C5.57718 2.57102 5.26066 3.21016 4.99795 3.92308H3.32372C4.04442 3.11785 4.93394 2.4669 5.93663 2.02583ZM2.33802 5.30769H4.57913C4.35427 6.23488 4.21147 7.24551 4.16797 8.30769H1.41566C1.51307 7.2267 1.83638 6.21085 2.33802 5.30769ZM9 0C13.9706 0 18 4.02944 18 9C18 13.9706 13.9706 18 9 18C4.02944 18 0 13.9706 0 9C0 4.02944 4.02944 0 9 0Z" fill="white"/>
</svg>
