<svg width="30" height="30" viewBox="0 0 30 30" fill="none" xmlns="http://www.w3.org/2000/svg">
<g clip-path="url(#clip0_406_1688)">
<path d="M15.0046 0C8.74052 0 6.90852 0.00646208 6.55242 0.036003C5.26692 0.142858 4.46701 0.34526 3.59555 0.779143C2.92396 1.11263 2.3943 1.4992 1.87156 2.0411C0.919555 3.02933 0.342584 4.24513 0.13372 5.69033C0.0321727 6.39193 0.0026317 6.53502 -0.0033688 10.1187C-0.00567669 11.3133 -0.0033688 12.8854 -0.0033688 14.9941C-0.0033688 21.2531 0.00355486 23.0833 0.0335574 23.4387C0.137412 24.6896 0.333583 25.4765 0.749003 26.3374C1.54292 27.9852 3.0592 29.2222 4.8455 29.6838C5.46402 29.8431 6.14715 29.9308 7.02415 29.9723C7.39572 29.9885 11.183 30 14.9725 30C18.7621 30 22.5516 29.9954 22.914 29.9769C23.9294 29.9292 24.5191 29.85 25.1711 29.6815C26.0568 29.4544 26.8823 29.0366 27.5898 28.4574C28.2974 27.8782 28.8699 27.1516 29.2676 26.3282C29.6749 25.4881 29.8815 24.6711 29.9749 23.4855C29.9952 23.227 30.0038 19.1058 30.0038 14.9902C30.0038 10.8738 29.9946 6.76026 29.9742 6.50178C29.8796 5.29706 29.6731 4.487 29.2526 3.63077C28.9075 2.92986 28.5244 2.40643 27.9682 1.87124C26.9758 0.923155 25.7619 0.346183 24.3151 0.13755C23.6142 0.0362338 23.4745 0.0062313 19.8881 0H15.0046Z" fill="url(#paint0_radial_406_1688)"/>
<path d="M15.0046 0C8.74052 0 6.90852 0.00646208 6.55242 0.036003C5.26692 0.142858 4.46701 0.34526 3.59555 0.779143C2.92396 1.11263 2.3943 1.4992 1.87156 2.0411C0.919555 3.02933 0.342584 4.24513 0.13372 5.69033C0.0321727 6.39193 0.0026317 6.53502 -0.0033688 10.1187C-0.00567669 11.3133 -0.0033688 12.8854 -0.0033688 14.9941C-0.0033688 21.2531 0.00355486 23.0833 0.0335574 23.4387C0.137412 24.6896 0.333583 25.4765 0.749003 26.3374C1.54292 27.9852 3.0592 29.2222 4.8455 29.6838C5.46402 29.8431 6.14715 29.9308 7.02415 29.9723C7.39572 29.9885 11.183 30 14.9725 30C18.7621 30 22.5516 29.9954 22.914 29.9769C23.9294 29.9292 24.5191 29.85 25.1711 29.6815C26.0568 29.4544 26.8823 29.0366 27.5898 28.4574C28.2974 27.8782 28.8699 27.1516 29.2676 26.3282C29.6749 25.4881 29.8815 24.6711 29.9749 23.4855C29.9952 23.227 30.0038 19.1058 30.0038 14.9902C30.0038 10.8738 29.9946 6.76026 29.9742 6.50178C29.8796 5.29706 29.6731 4.487 29.2526 3.63077C28.9075 2.92986 28.5244 2.40643 27.9682 1.87124C26.9758 0.923155 25.7619 0.346183 24.3151 0.13755C23.6142 0.0362338 23.4745 0.0062313 19.8881 0H15.0046Z" fill="url(#paint1_radial_406_1688)"/>
<path d="M14.9979 3.92334C11.9893 3.92334 11.6118 3.9365 10.4301 3.99027C9.25081 4.04427 8.44582 4.23098 7.74146 4.50493C7.01286 4.78787 6.39481 5.16637 5.77906 5.78234C5.16286 6.39809 4.78437 7.01614 4.5005 7.74451C4.22586 8.44911 4.03892 9.25433 3.98584 10.4332C3.93322 11.6148 3.91937 11.9926 3.91937 15.0012C3.91937 18.0098 3.93276 18.3862 3.9863 19.5678C4.04054 20.7472 4.22724 21.5521 4.50096 22.2565C4.78414 22.9851 5.16263 23.6032 5.7786 24.2189C6.39411 24.8351 7.01217 25.2145 7.7403 25.4975C8.44513 25.7714 9.25035 25.9581 10.4294 26.0121C11.6111 26.0659 11.9884 26.0791 14.9967 26.0791C18.0055 26.0791 18.3819 26.0659 19.5636 26.0121C20.7429 25.9581 21.5488 25.7714 22.2537 25.4975C22.982 25.2145 23.5991 24.8351 24.2147 24.2189C24.8309 23.6032 25.2094 22.9851 25.4932 22.2567C25.7656 21.5521 25.9525 20.7469 26.0079 19.5681C26.061 18.3864 26.0748 18.0098 26.0748 15.0012C26.0748 11.9926 26.061 11.6151 26.0079 10.4334C25.9525 9.2541 25.7656 8.44911 25.4932 7.74474C25.2094 7.01614 24.8309 6.39809 24.2147 5.78234C23.5985 5.16614 22.9822 4.78764 22.253 4.50493C21.5467 4.23098 20.7413 4.04427 19.562 3.99027C18.3803 3.9365 18.0041 3.92334 14.9947 3.92334H14.9979ZM14.0041 5.91966C14.2991 5.9192 14.6282 5.91966 14.9979 5.91966C17.9557 5.91966 18.3062 5.93028 19.4743 5.98336C20.5544 6.03275 21.1406 6.21323 21.5311 6.36485C22.048 6.56564 22.4166 6.80566 22.8041 7.19339C23.1918 7.58111 23.4318 7.95037 23.6331 8.46734C23.7847 8.85737 23.9654 9.44358 24.0146 10.5237C24.0676 11.6915 24.0792 12.0423 24.0792 14.9987C24.0792 17.9551 24.0676 18.3059 24.0146 19.4737C23.9652 20.5538 23.7847 21.14 23.6331 21.53C23.4323 22.047 23.1918 22.4151 22.8041 22.8026C22.4164 23.1903 22.0482 23.4303 21.5311 23.6311C21.141 23.7834 20.5544 23.9634 19.4743 24.0128C18.3065 24.0659 17.9557 24.0774 14.9979 24.0774C12.0399 24.0774 11.6893 24.0659 10.5215 24.0128C9.44144 23.963 8.85524 23.7825 8.46452 23.6309C7.94755 23.4301 7.57829 23.1901 7.19056 22.8023C6.80284 22.4146 6.56282 22.0463 6.36157 21.5291C6.20995 21.139 6.02924 20.5528 5.98008 19.4727C5.927 18.3049 5.91638 17.9541 5.91638 14.9959C5.91638 12.0376 5.927 11.6887 5.98008 10.5209C6.02947 9.44081 6.20995 8.8546 6.36157 8.46411C6.56236 7.94714 6.80284 7.57788 7.19056 7.19016C7.57829 6.80243 7.94755 6.56241 8.46452 6.36116C8.85501 6.20884 9.44144 6.02883 10.5215 5.97921C11.5435 5.93305 11.9395 5.9192 14.0041 5.91689V5.91966ZM20.9112 7.75905C20.6482 7.75905 20.3912 7.83703 20.1726 7.98312C19.9539 8.12921 19.7836 8.33685 19.683 8.57978C19.5824 8.82271 19.5561 9.09003 19.6074 9.34791C19.6587 9.60579 19.7854 9.84265 19.9713 10.0285C20.1573 10.2144 20.3942 10.341 20.6521 10.3923C20.91 10.4435 21.1773 10.4171 21.4202 10.3164C21.6631 10.2157 21.8707 10.0453 22.0167 9.8266C22.1627 9.60793 22.2406 9.35087 22.2405 9.08793C22.2405 8.35402 21.6451 7.75859 20.9112 7.75859V7.75905ZM14.9979 9.31226C11.8562 9.31226 9.30897 11.8595 9.30897 15.0012C9.30897 18.1429 11.8562 20.689 14.9979 20.689C18.1396 20.689 20.6861 18.1429 20.6861 15.0012C20.6861 11.8595 18.1394 9.31226 14.9977 9.31226H14.9979ZM14.9979 11.3086C17.0371 11.3086 18.6905 12.9617 18.6905 15.0012C18.6905 17.0405 17.0371 18.6938 14.9979 18.6938C12.9584 18.6938 11.3053 17.0405 11.3053 15.0012C11.3053 12.9617 12.9584 11.3086 14.9979 11.3086Z" fill="white"/>
</g>
<defs>
<radialGradient id="paint0_radial_406_1688" cx="0" cy="0" r="1" gradientUnits="userSpaceOnUse" gradientTransform="translate(7.96657 32.3106) rotate(-90) scale(29.7322 27.6608)">
<stop stop-color="#FFDD55"/>
<stop offset="0.1" stop-color="#FFDD55"/>
<stop offset="0.5" stop-color="#FF543E"/>
<stop offset="1" stop-color="#C837AB"/>
</radialGradient>
<radialGradient id="paint1_radial_406_1688" cx="0" cy="0" r="1" gradientUnits="userSpaceOnUse" gradientTransform="translate(-5.03092 2.16115) rotate(78.6776) scale(13.2906 54.7981)">
<stop stop-color="#3771C8"/>
<stop offset="0.128" stop-color="#3771C8"/>
<stop offset="1" stop-color="#6600FF" stop-opacity="0"/>
</radialGradient>
<clipPath id="clip0_406_1688">
<rect width="30" height="30" fill="white"/>
</clipPath>
</defs>
</svg>
