<svg width="56" height="98" viewBox="0 0 56 98" fill="none" xmlns="http://www.w3.org/2000/svg">
<path fill-rule="evenodd" clip-rule="evenodd" d="M34.0356 85.9144C42.2662 69.0246 56 39.2036 56 28.2692C56 12.6566 43.464 0 28 0C12.536 0 0 12.6566 0 28.2692C0 39.2036 13.7338 69.0246 21.9644 85.9144C24.4525 91.0201 31.5475 91.0201 34.0356 85.9144ZM28 42.4038C37.0206 42.4038 44.3333 35.0208 44.3333 25.9134C44.3333 16.806 37.0206 9.42305 28 9.42305C18.9793 9.42305 11.6666 16.806 11.6666 25.9134C11.6666 35.0208 18.9793 42.4038 28 42.4038Z" fill="white"/>
</svg>
