<svg width="489" height="470" viewBox="0 0 489 470" fill="none" xmlns="http://www.w3.org/2000/svg">
<g clip-path="url(#clip0_487_10)">
<rect width="489" height="470" rx="52" fill="#5568AC"/>
<path d="M-215 402V264.683H-208.787V249.9H-188.511V264.683H-180.336V249.572H-168.563V239.059H-148.615V249.572H-145.345V264.683H-139.131V291.621H-130.956V302.133H-126.05V361.265H-120.164V325.457H-117.221V315.274H-103.813V323.815H-100.543V316.259H-94.9834V311.003H-82.5566V325.129H-76.3433V294.249H-54.4329V320.53H-50.8356V227.233H-45.6033V200.624H-34.4846V227.233H-30.2334V360.936H-25.9821V267.64H-22.0578V254.828H-6.36084V267.311H-0.474475V247.272L2.46872 244.315L6.22291 248.087V267.311H10.3172V294.906H17.1846V306.404H22.417V295.563H30.9195V287.679H51.1948V365.535H62.6405V359.294H72.7782V351.41H90.1103V361.265H98.6128V387.546H109.404V361.593H124.774V353.052H133.604V333.67H157.476V285.051H163.036V279.794H173.174V271.582H180.695V265.34L186.254 262.055L189.852 265.34V258.441L193.776 254.499L198.681 258.77V341.554H204.894V313.631H227.132V324.8H232.037V316.916H245.118V301.148H272.915V287.35H302.347V301.476H309.541V287.022L314.446 283.408L319.025 287.022V292.606H335.049V301.805H338.319V360.608H345.186V247.929H351.4V239.716H348.784V225.919L354.67 221.977L360.229 225.919V239.716H357.613V247.601H365.789V233.803H384.102V247.601H388.68V252.2H386.391V371.777H390.642V325.129H417.785V316.259H429.885V324.8H432.828V329.071H430.866V389.845H437.079V324.472H463.241V316.916H475.668V324.8H485.805V257.784H489.729V245.63H494.962V236.431L498.886 232.489L502.967 236.589V243.658H509.351V257.784H523.74V366.849H550.228V212.122H554.807V207.352H564.29V189.454H569.523V178.942L573.447 175L578.182 179.757V189.454H582.93V207.352H588.163V270.925H601.571V247.601H605.168V232.489H620.865V246.944H625.77V223.619L629.367 220.006L633.121 223.777V245.958H638.197V292.278H644.41V302.133H663.704V268.625H684.307V252.2H710.141V264.683H717.009V337.612H721.587V244.973H736.303V229.861H752V402C752 402 -215 401.671 -215 402Z" fill="#26435F"/>
<path d="M0 402H489V418C489 446.719 465.719 470 437 470H52C23.2812 470 0 446.719 0 418V402Z" fill="url(#paint0_linear_487_10)"/>
<rect y="408" width="489" height="6" fill="#E2BA29"/>
</g>
<defs>
<linearGradient id="paint0_linear_487_10" x1="244.5" y1="402" x2="244.5" y2="470" gradientUnits="userSpaceOnUse">
<stop stop-color="#707271"/>
<stop offset="1" stop-color="#858585"/>
</linearGradient>
<clipPath id="clip0_487_10">
<rect width="489" height="470" fill="white"/>
</clipPath>
</defs>
</svg>
