<svg width="38" height="38" viewBox="0 0 38 38" fill="none" xmlns="http://www.w3.org/2000/svg">
<path d="M33.25 29.2917C33.25 31.4783 31.4783 33.25 29.2917 33.25H8.70833C6.52254 33.25 4.75 31.4783 4.75 29.2917V8.70833C4.75 6.52175 6.52254 4.75 8.70833 4.75H29.2917C31.4783 4.75 33.25 6.52175 33.25 8.70833V29.2917Z" fill="#0078D4"/>
<path opacity="0.05" d="M23.75 29.2918V21.2968C23.75 19.9597 23.1016 19.1609 22.0147 19.1609C21.3695 19.1609 20.8953 19.5242 20.6063 20.2407C20.5928 20.2914 20.5738 20.498 20.5818 21.1226L20.5833 29.2918H15.0417V14.2502H20.5833V15.0901C21.3924 14.532 22.3844 14.2502 23.5426 14.2502C27.1423 14.2502 29.2909 16.6988 29.2909 20.8004L29.2917 29.2918H23.75ZM8.70834 29.2918V14.2502H11.4451C9.85943 14.2502 8.70834 13.0848 8.70834 11.4785C8.70834 9.87383 9.87843 8.7085 11.4903 8.7085C13.0831 8.7085 14.2176 9.84137 14.25 11.4627C14.25 13.0809 13.0791 14.2502 11.4673 14.2502H14.25V29.2918H8.70834Z" fill="black"/>
<path opacity="0.07" d="M24.1458 28.8957V21.2965C24.1458 19.7345 23.3296 18.7647 22.0147 18.7647C20.9895 18.7647 20.4828 19.4867 20.239 20.0923C20.174 20.2499 20.1827 20.8753 20.1859 21.1421L20.1875 28.8957H15.4375V14.6457H20.1875V15.9424C20.8169 15.2909 21.8302 14.6457 23.5426 14.6457C26.8937 14.6457 28.895 16.9463 28.895 20.8001L28.8958 28.8957H24.1458ZM9.10416 28.8957V14.6457H13.8542V28.8957H9.10416ZM11.4451 13.854C10.089 13.854 9.10416 12.8549 9.10416 11.4782C9.10416 10.1023 10.108 9.104 11.4902 9.104C12.8551 9.104 13.8264 10.077 13.8542 11.4703C13.8542 12.8549 12.8503 13.854 11.4673 13.854H11.4451Z" fill="black"/>
<path d="M9.5 15.0417H13.4583V28.5H9.5V15.0417ZM11.4673 13.4583H11.4451C10.264 13.4583 9.5 12.578 9.5 11.4784C9.5 10.355 10.2877 9.5 11.4902 9.5C12.6944 9.5 13.4362 10.355 13.4583 11.4784C13.4583 12.5772 12.6944 13.4583 11.4673 13.4583ZM28.5 28.5H24.5417V21.2966C24.5417 19.5565 23.5719 18.369 22.0147 18.369C20.8264 18.369 20.1835 19.1702 19.8716 19.9445C19.7576 20.2215 19.7917 20.9879 19.7917 21.375V28.5H15.8333V15.0417H19.7917V17.1127C20.3625 16.2292 21.2563 15.0417 23.5426 15.0417C26.3752 15.0417 28.4992 16.8229 28.4992 20.8003L28.5 28.5Z" fill="white"/>
</svg>
