<svg width="98" height="64" viewBox="0 0 98 64" fill="none" xmlns="http://www.w3.org/2000/svg">
<circle cx="23.898" cy="23.898" r="23.898" fill="#FEF51D"/>
<path fill-rule="evenodd" clip-rule="evenodd" d="M78.2249 63.9999H32.0973C32.0973 63.9939 32.0973 63.988 32.0973 63.982C31.8191 63.9939 31.5393 63.9999 31.2581 63.9999C20.594 63.9999 11.949 55.3549 11.949 44.6908C11.949 34.0266 20.594 25.3816 31.2581 25.3816C32.9577 25.3816 34.6059 25.6012 36.176 26.0135C38.4612 17.8979 45.9181 11.949 54.7644 11.949C63.6109 11.949 71.0679 17.8981 73.3529 26.0139C74.9236 25.6013 76.5723 25.3816 78.2725 25.3816C88.9366 25.3816 97.5816 34.0266 97.5816 44.6908C97.5816 55.074 89.3861 63.5431 79.1109 63.9821C79.1109 63.988 79.1109 63.9939 79.1109 63.9999H78.32C78.3041 63.9999 78.2883 63.9999 78.2725 63.9999C78.2566 63.9999 78.2408 63.9999 78.2249 63.9999Z" fill="white"/>
</svg>
