<svg width="38" height="38" viewBox="0 0 38 38" fill="none" xmlns="http://www.w3.org/2000/svg">
<path d="M33.25 9.83962C32.2026 10.3035 31.0761 10.6131 29.8878 10.7595C31.0959 10.0423 32.0253 8.89833 32.4615 7.54696C31.331 8.20958 30.0786 8.69646 28.7462 8.95296C27.6822 7.82483 26.1646 7.125 24.4831 7.125C21.2531 7.125 18.635 9.72008 18.635 12.92C18.635 13.3728 18.6881 13.8138 18.7878 14.2421C13.9286 13.9983 9.61874 11.6882 6.73549 8.18267C6.22883 9.03925 5.94383 10.0423 5.94383 11.1008C5.94383 13.1124 6.97379 14.8833 8.54445 15.9268C7.58574 15.8975 6.68324 15.6307 5.89316 15.2032C5.89316 15.2206 5.89316 15.2467 5.89316 15.2713C5.89316 18.0825 7.90954 20.4234 10.5822 20.9562C10.0937 21.09 9.57758 21.1644 9.04558 21.1644C8.66795 21.1644 8.29983 21.1217 7.94358 21.0575C8.68774 23.355 10.8466 25.0341 13.4045 25.084C11.4032 26.6356 8.88249 27.565 6.14174 27.565C5.66833 27.565 5.2052 27.5381 4.74762 27.4827C7.33716 29.1223 10.412 30.0833 13.7125 30.0833C24.4672 30.0833 30.3509 21.2515 30.3509 13.5898C30.3509 13.3388 30.343 13.0886 30.3311 12.8416C31.479 12.031 32.4686 11.0081 33.25 9.83962Z" fill="#03A9F4"/>
</svg>
