<svg width="40" height="28" viewBox="0 0 40 28" fill="none" xmlns="http://www.w3.org/2000/svg">
<path d="M39.1761 4.38118C38.7148 2.66824 37.3639 1.31765 35.6506 0.856471C32.5205 0 19.9999 0 19.9999 0C19.9999 0 7.47937 0 4.34924 0.823529C2.66885 1.28471 1.285 2.66824 0.82372 4.38118C0 7.51059 0 14 0 14C0 14 0 20.5224 0.82372 23.6188C1.285 25.3318 2.6359 26.6824 4.34924 27.1435C7.51232 28 19.9999 28 19.9999 28C19.9999 28 32.5205 28 35.6506 27.1765C37.3639 26.7153 38.7148 25.3647 39.1761 23.6518C39.9998 20.5224 39.9998 14.0329 39.9998 14.0329C39.9998 14.0329 40.0328 7.51059 39.1761 4.38118Z" fill="#FF0000"/>
<path d="M26.4249 14.0002L16.0131 8.00488V19.9955L26.4249 14.0002Z" fill="white"/>
</svg>
